<?xml version="1.0" encoding="UTF-8" standalone="no"?>
<!DOCTYPE svg PUBLIC "-//W3C//DTD SVG 1.1//EN"
 "http://www.w3.org/Graphics/SVG/1.1/DTD/svg11.dtd">
<!-- Generated by graphviz version 2.43.0 (0)
 -->
<!-- Title: G Pages: 1 -->
<svg width="850pt" height="895pt"
 viewBox="0.00 0.00 849.87 894.65" xmlns="http://www.w3.org/2000/svg" xmlns:xlink="http://www.w3.org/1999/xlink">
<g id="graph0" class="graph" transform="scale(1 1) rotate(0) translate(4 890.65)">
<title>G</title><style>.edge>path:hover{stroke-width:8}</style>
<polygon fill="white" stroke="transparent" points="-4,4 -4,-890.65 845.87,-890.65 845.87,4 -4,4"/>
<!-- forensicfit -->
<g id="node1" class="node">
<title>forensicfit</title><style>.edge>path:hover{stroke-width:8}</style>
<ellipse fill="#bd0404" stroke="black" cx="241.2" cy="-18" rx="38.03" ry="18"/>
<text text-anchor="middle" x="241.2" y="-15.5" font-family="Helvetica,sans-Serif" font-size="10.00" fill="#ffffff">forensicfit</text>
</g>
<!-- forensicfit_core -->
<g id="node2" class="node">
<title>forensicfit_core</title><style>.edge>path:hover{stroke-width:8}</style>
<ellipse fill="#d10505" stroke="black" cx="320.2" cy="-381.05" rx="48.17" ry="21.43"/>
<text text-anchor="middle" x="320.2" y="-384.05" font-family="Helvetica,sans-Serif" font-size="10.00" fill="#ffffff">forensicfit.</text>
<text text-anchor="middle" x="320.2" y="-373.05" font-family="Helvetica,sans-Serif" font-size="10.00" fill="#ffffff">core</text>
</g>
<!-- forensicfit_core&#45;&gt;forensicfit -->
<g id="edge1" class="edge">
<title>forensicfit_core&#45;&gt;forensicfit</title><style>.edge>path:hover{stroke-width:8}</style>
<path fill="none" stroke="black" d="M355.2,-256.84C342.16,-207.21 416.25,-220.71 434.2,-172.64"/>
<path fill="none" stroke="black" d="M434.2,-170.64C449.56,-129.54 464.9,-106.82 438.2,-72 420.02,-48.28 340.21,-32.8 287.92,-25.01"/>
<polygon fill="#d10505" stroke="black" points="288.25,-21.52 277.86,-23.55 287.25,-28.45 288.25,-21.52"/>
</g>
<!-- forensicfit_database_database -->
<g id="node8" class="node">
<title>forensicfit_database_database</title><style>.edge>path:hover{stroke-width:8}</style>
<ellipse fill="#a83838" stroke="black" cx="206.2" cy="-257.84" rx="48.17" ry="28.98"/>
<text text-anchor="middle" x="206.2" y="-266.34" font-family="Helvetica,sans-Serif" font-size="10.00" fill="#ffffff">forensicfit.</text>
<text text-anchor="middle" x="206.2" y="-255.34" font-family="Helvetica,sans-Serif" font-size="10.00" fill="#ffffff">database.</text>
<text text-anchor="middle" x="206.2" y="-244.34" font-family="Helvetica,sans-Serif" font-size="10.00" fill="#ffffff">database</text>
</g>
<!-- forensicfit_core&#45;&gt;forensicfit_database_database -->
<g id="edge2" class="edge">
<title>forensicfit_core&#45;&gt;forensicfit_database_database</title><style>.edge>path:hover{stroke-width:8}</style>
<path fill="none" stroke="black" d="M340.47,-361.61C349.35,-351.34 357.35,-337.81 355.2,-323.84"/>
<path fill="none" stroke="black" d="M355.2,-322.84C349.13,-283.24 303.78,-267.89 264.69,-262.07"/>
<polygon fill="#d10505" stroke="black" points="264.76,-258.55 254.39,-260.73 263.85,-265.49 264.76,-258.55"/>
</g>
<!-- forensicfit_from_excel -->
<g id="node9" class="node">
<title>forensicfit_from_excel</title><style>.edge>path:hover{stroke-width:8}</style>
<ellipse fill="#b03a3a" stroke="black" cx="50.2" cy="-93.21" rx="50.41" ry="21.43"/>
<text text-anchor="middle" x="50.2" y="-96.21" font-family="Helvetica,sans-Serif" font-size="10.00" fill="#ffffff">forensicfit.</text>
<text text-anchor="middle" x="50.2" y="-85.21" font-family="Helvetica,sans-Serif" font-size="10.00" fill="#ffffff">from_excel</text>
</g>
<!-- forensicfit_core&#45;&gt;forensicfit_from_excel -->
<g id="edge3" class="edge">
<title>forensicfit_core&#45;&gt;forensicfit_from_excel</title><style>.edge>path:hover{stroke-width:8}</style>
<path fill="none" stroke="black" d="M355.2,-322.84C350.89,-294.72 362.43,-286.35 355.2,-258.84"/>
<path fill="none" stroke="black" d="M355.2,-256.84C330.84,-164.12 230.5,-243.68 149.2,-192.85 138.75,-186.32 139.52,-180.72 130.2,-172.64"/>
</g>
<!-- forensicfit_script_process_dir -->
<g id="node12" class="node">
<title>forensicfit_script_process_dir</title><style>.edge>path:hover{stroke-width:8}</style>
<ellipse fill="#b03a3a" stroke="black" cx="355.2" cy="-93.21" rx="73.58" ry="21.43"/>
<text text-anchor="middle" x="355.2" y="-96.21" font-family="Helvetica,sans-Serif" font-size="10.00" fill="#ffffff">forensicfit.</text>
<text text-anchor="middle" x="355.2" y="-85.21" font-family="Helvetica,sans-Serif" font-size="10.00" fill="#ffffff">script_process_dir</text>
</g>
<!-- forensicfit_core&#45;&gt;forensicfit_script_process_dir -->
<g id="edge4" class="edge">
<title>forensicfit_core&#45;&gt;forensicfit_script_process_dir</title><style>.edge>path:hover{stroke-width:8}</style>
<path fill="none" stroke="black" d="M355.2,-170.64C349.52,-156.12 349.06,-138.83 350.21,-124.38"/>
<polygon fill="#d10505" stroke="black" points="353.69,-124.75 351.29,-114.43 346.74,-123.99 353.69,-124.75"/>
</g>
<!-- forensicfit_store_on_db -->
<g id="node13" class="node">
<title>forensicfit_store_on_db</title><style>.edge>path:hover{stroke-width:8}</style>
<ellipse fill="#ac4949" stroke="black" cx="210.2" cy="-93.21" rx="53.98" ry="21.43"/>
<text text-anchor="middle" x="210.2" y="-96.21" font-family="Helvetica,sans-Serif" font-size="10.00" fill="#ffffff">forensicfit.</text>
<text text-anchor="middle" x="210.2" y="-85.21" font-family="Helvetica,sans-Serif" font-size="10.00" fill="#ffffff">store_on_db</text>
</g>
<!-- forensicfit_core&#45;&gt;forensicfit_store_on_db -->
<g id="edge5" class="edge">
<title>forensicfit_core&#45;&gt;forensicfit_store_on_db</title><style>.edge>path:hover{stroke-width:8}</style>
<path fill="none" stroke="black" d="M355.2,-256.84C345.69,-220.65 368.85,-207.49 355.2,-172.64"/>
<path fill="none" stroke="black" d="M355.2,-170.64C347.32,-150.49 297.61,-127.3 258.57,-111.8"/>
<polygon fill="#d10505" stroke="black" points="259.49,-108.4 248.9,-108.03 256.95,-114.93 259.49,-108.4"/>
</g>
<!-- forensicfit_core_analyzer -->
<g id="node3" class="node">
<title>forensicfit_core_analyzer</title><style>.edge>path:hover{stroke-width:8}</style>
<ellipse fill="#c04040" stroke="black" cx="206.2" cy="-467.25" rx="48.17" ry="28.98"/>
<text text-anchor="middle" x="206.2" y="-475.75" font-family="Helvetica,sans-Serif" font-size="10.00" fill="#ffffff">forensicfit.</text>
<text text-anchor="middle" x="206.2" y="-464.75" font-family="Helvetica,sans-Serif" font-size="10.00" fill="#ffffff">core.</text>
<text text-anchor="middle" x="206.2" y="-453.75" font-family="Helvetica,sans-Serif" font-size="10.00" fill="#ffffff">analyzer</text>
</g>
<!-- forensicfit_core_analyzer&#45;&gt;forensicfit_core -->
<g id="edge6" class="edge">
<title>forensicfit_core_analyzer&#45;&gt;forensicfit_core</title><style>.edge>path:hover{stroke-width:8}</style>
<path fill="none" stroke="black" d="M235.86,-444.35C251.93,-432.48 271.79,-417.81 288.21,-405.68"/>
<polygon fill="#c04040" stroke="black" points="290.48,-408.36 296.44,-399.6 286.32,-402.73 290.48,-408.36"/>
</g>
<!-- forensicfit_core_data -->
<g id="node4" class="node">
<title>forensicfit_core_data</title><style>.edge>path:hover{stroke-width:8}</style>
<ellipse fill="#b03a3a" stroke="black" cx="586.2" cy="-467.25" rx="48.17" ry="28.98"/>
<text text-anchor="middle" x="586.2" y="-475.75" font-family="Helvetica,sans-Serif" font-size="10.00" fill="#ffffff">forensicfit.</text>
<text text-anchor="middle" x="586.2" y="-464.75" font-family="Helvetica,sans-Serif" font-size="10.00" fill="#ffffff">core.</text>
<text text-anchor="middle" x="586.2" y="-453.75" font-family="Helvetica,sans-Serif" font-size="10.00" fill="#ffffff">data</text>
</g>
<!-- forensicfit_core_data&#45;&gt;forensicfit_core -->
<g id="edge7" class="edge">
<title>forensicfit_core_data&#45;&gt;forensicfit_core</title><style>.edge>path:hover{stroke-width:8}</style>
<path fill="none" stroke="black" d="M550.84,-447.42C543.79,-444.09 536.35,-440.86 529.2,-438.26 465.98,-415.3 446.89,-420.7 382.2,-402.26 377.29,-400.86 372.19,-399.33 367.11,-397.75"/>
<polygon fill="#b03a3a" stroke="black" points="368.03,-394.37 357.44,-394.69 365.92,-401.04 368.03,-394.37"/>
</g>
<!-- forensicfit_core_material -->
<g id="node5" class="node">
<title>forensicfit_core_material</title><style>.edge>path:hover{stroke-width:8}</style>
<ellipse fill="#a13535" stroke="black" cx="320.2" cy="-467.25" rx="48.17" ry="28.98"/>
<text text-anchor="middle" x="320.2" y="-475.75" font-family="Helvetica,sans-Serif" font-size="10.00" fill="#ffffff">forensicfit.</text>
<text text-anchor="middle" x="320.2" y="-464.75" font-family="Helvetica,sans-Serif" font-size="10.00" fill="#ffffff">core.</text>
<text text-anchor="middle" x="320.2" y="-453.75" font-family="Helvetica,sans-Serif" font-size="10.00" fill="#ffffff">material</text>
</g>
<!-- forensicfit_core_material&#45;&gt;forensicfit_core -->
<g id="edge8" class="edge">
<title>forensicfit_core_material&#45;&gt;forensicfit_core</title><style>.edge>path:hover{stroke-width:8}</style>
<path fill="none" stroke="black" d="M320.2,-438.21C320.2,-430.01 320.2,-420.99 320.2,-412.64"/>
<polygon fill="#a13535" stroke="black" points="323.7,-412.51 320.2,-402.51 316.7,-412.51 323.7,-412.51"/>
</g>
<!-- forensicfit_core_tape -->
<g id="node6" class="node">
<title>forensicfit_core_tape</title><style>.edge>path:hover{stroke-width:8}</style>
<ellipse fill="#a13535" stroke="black" cx="472.2" cy="-467.25" rx="48.17" ry="28.98"/>
<text text-anchor="middle" x="472.2" y="-475.75" font-family="Helvetica,sans-Serif" font-size="10.00" fill="#ffffff">forensicfit.</text>
<text text-anchor="middle" x="472.2" y="-464.75" font-family="Helvetica,sans-Serif" font-size="10.00" fill="#ffffff">core.</text>
<text text-anchor="middle" x="472.2" y="-453.75" font-family="Helvetica,sans-Serif" font-size="10.00" fill="#ffffff">tape</text>
</g>
<!-- forensicfit_core_tape&#45;&gt;forensicfit_core -->
<g id="edge9" class="edge">
<title>forensicfit_core_tape&#45;&gt;forensicfit_core</title><style>.edge>path:hover{stroke-width:8}</style>
<path fill="none" stroke="black" d="M437.33,-446.94C413.71,-433.85 382.49,-416.55 358.23,-403.11"/>
<polygon fill="#a13535" stroke="black" points="359.74,-399.95 349.3,-398.17 356.35,-406.07 359.74,-399.95"/>
</g>
<!-- forensicfit_database -->
<g id="node7" class="node">
<title>forensicfit_database</title><style>.edge>path:hover{stroke-width:8}</style>
<ellipse fill="#e61919" stroke="black" cx="206.2" cy="-171.64" rx="48.17" ry="21.43"/>
<text text-anchor="middle" x="206.2" y="-174.64" font-family="Helvetica,sans-Serif" font-size="10.00" fill="#ffffff">forensicfit.</text>
<text text-anchor="middle" x="206.2" y="-163.64" font-family="Helvetica,sans-Serif" font-size="10.00" fill="#ffffff">database</text>
</g>
<!-- forensicfit_database&#45;&gt;forensicfit -->
<g id="edge10" class="edge">
<title>forensicfit_database&#45;&gt;forensicfit</title><style>.edge>path:hover{stroke-width:8}</style>
<path fill="none" stroke="black" d="M180.22,-153.6C167.72,-143.8 154,-130.29 147.2,-114.43 139.78,-97.09 137.69,-88.28 147.2,-72 158.57,-52.54 180.02,-39.66 199.56,-31.48"/>
<polygon fill="#e61919" stroke="black" points="200.89,-34.72 208.94,-27.83 198.36,-28.19 200.89,-34.72"/>
</g>
<!-- forensicfit_database&#45;&gt;forensicfit_from_excel -->
<g id="edge11" class="edge">
<title>forensicfit_database&#45;&gt;forensicfit_from_excel</title><style>.edge>path:hover{stroke-width:8}</style>
<path fill="none" stroke="black" d="M175.01,-155.36C150.94,-143.56 117.42,-127.14 91.19,-114.29"/>
<polygon fill="#e61919" stroke="black" points="92.4,-110.99 81.88,-109.73 89.32,-117.27 92.4,-110.99"/>
</g>
<!-- forensicfit_database&#45;&gt;forensicfit_script_process_dir -->
<g id="edge12" class="edge">
<title>forensicfit_database&#45;&gt;forensicfit_script_process_dir</title><style>.edge>path:hover{stroke-width:8}</style>
<path fill="none" stroke="black" d="M236.72,-154.99C258.31,-143.91 287.58,-128.9 311.63,-116.57"/>
<polygon fill="#e61919" stroke="black" points="313.26,-119.66 320.56,-111.98 310.06,-113.43 313.26,-119.66"/>
</g>
<!-- forensicfit_database&#45;&gt;forensicfit_store_on_db -->
<g id="edge13" class="edge">
<title>forensicfit_database&#45;&gt;forensicfit_store_on_db</title><style>.edge>path:hover{stroke-width:8}</style>
<path fill="none" stroke="black" d="M207.28,-150.16C207.69,-142.3 208.17,-133.16 208.62,-124.57"/>
<polygon fill="#e61919" stroke="black" points="212.12,-124.65 209.14,-114.49 205.13,-124.29 212.12,-124.65"/>
</g>
<!-- forensicfit_database_database&#45;&gt;forensicfit_database -->
<g id="edge14" class="edge">
<title>forensicfit_database_database&#45;&gt;forensicfit_database</title><style>.edge>path:hover{stroke-width:8}</style>
<path fill="none" stroke="black" d="M206.2,-228.81C206.2,-220.6 206.2,-211.58 206.2,-203.23"/>
<polygon fill="#a83838" stroke="black" points="209.7,-203.1 206.2,-193.1 202.7,-203.1 209.7,-203.1"/>
</g>
<!-- forensicfit_from_excel&#45;&gt;forensicfit -->
<g id="edge15" class="edge">
<title>forensicfit_from_excel&#45;&gt;forensicfit</title><style>.edge>path:hover{stroke-width:8}</style>
<path fill="none" stroke="black" d="M86.58,-78.27C119.88,-65.51 168.98,-46.68 202.88,-33.69"/>
<polygon fill="#b03a3a" stroke="black" points="204.36,-36.87 212.44,-30.02 201.85,-30.34 204.36,-36.87"/>
</g>
<!-- forensicfit_machine_learning -->
<g id="node10" class="node">
<title>forensicfit_machine_learning</title><style>.edge>path:hover{stroke-width:8}</style>
<ellipse fill="#bc2f2f" stroke="black" cx="536.2" cy="-381.05" rx="73.58" ry="21.43"/>
<text text-anchor="middle" x="536.2" y="-384.05" font-family="Helvetica,sans-Serif" font-size="10.00" fill="#ffffff">forensicfit.</text>
<text text-anchor="middle" x="536.2" y="-373.05" font-family="Helvetica,sans-Serif" font-size="10.00" fill="#ffffff">machine_learning</text>
</g>
<!-- forensicfit_machine_learning&#45;&gt;forensicfit -->
<g id="edge16" class="edge">
<title>forensicfit_machine_learning&#45;&gt;forensicfit</title><style>.edge>path:hover{stroke-width:8}</style>
<path fill="none" stroke="black" d="M537.55,-359.66C537.92,-348.95 537.84,-335.63 536.2,-323.84"/>
</g>
<!-- forensicfit_machine_learning_siamese_network -->
<g id="node11" class="node">
<title>forensicfit_machine_learning_siamese_network</title><style>.edge>path:hover{stroke-width:8}</style>
<ellipse fill="#b83d3d" stroke="black" cx="766.2" cy="-467.25" rx="75.82" ry="28.98"/>
<text text-anchor="middle" x="766.2" y="-475.75" font-family="Helvetica,sans-Serif" font-size="10.00" fill="#ffffff">forensicfit.</text>
<text text-anchor="middle" x="766.2" y="-464.75" font-family="Helvetica,sans-Serif" font-size="10.00" fill="#ffffff">machine_learning.</text>
<text text-anchor="middle" x="766.2" y="-453.75" font-family="Helvetica,sans-Serif" font-size="10.00" fill="#ffffff">siamese_network</text>
</g>
<!-- forensicfit_machine_learning_siamese_network&#45;&gt;forensicfit_machine_learning -->
<g id="edge17" class="edge">
<title>forensicfit_machine_learning_siamese_network&#45;&gt;forensicfit_machine_learning</title><style>.edge>path:hover{stroke-width:8}</style>
<path fill="none" stroke="black" d="M712.57,-446.62C675.65,-433.1 626.79,-415.21 589.87,-401.69"/>
<polygon fill="#b83d3d" stroke="black" points="590.86,-398.33 580.27,-398.18 588.46,-404.91 590.86,-398.33"/>
</g>
<!-- forensicfit_script_process_dir&#45;&gt;forensicfit -->
<g id="edge18" class="edge">
<title>forensicfit_script_process_dir&#45;&gt;forensicfit</title><style>.edge>path:hover{stroke-width:8}</style>
<path fill="none" stroke="black" d="M326.14,-73.55C309.4,-62.8 288.39,-49.3 271.45,-38.43"/>
<polygon fill="#b03a3a" stroke="black" points="273.32,-35.46 263.01,-33.01 269.54,-41.35 273.32,-35.46"/>
</g>
<!-- forensicfit_utils -->
<g id="node14" class="node">
<title>forensicfit_utils</title><style>.edge>path:hover{stroke-width:8}</style>
<ellipse fill="#d60b0b" stroke="black" cx="434.2" cy="-590.46" rx="48.17" ry="21.43"/>
<text text-anchor="middle" x="434.2" y="-593.46" font-family="Helvetica,sans-Serif" font-size="10.00" fill="#ffffff">forensicfit.</text>
<text text-anchor="middle" x="434.2" y="-582.46" font-family="Helvetica,sans-Serif" font-size="10.00" fill="#ffffff">utils</text>
</g>
<!-- forensicfit_utils&#45;&gt;forensicfit -->
<g id="edge19" class="edge">
<title>forensicfit_utils&#45;&gt;forensicfit</title><style>.edge>path:hover{stroke-width:8}</style>
<path fill="none" stroke="black" d="M396.2,-466.25C380.75,-414.87 413.73,-396.18 453.2,-359.84 482.79,-332.6 541.74,-363.66 536.2,-323.84"/>
<path fill="none" stroke="black" d="M536.2,-322.84C525.86,-242.81 411.56,-250.09 434.2,-172.64"/>
</g>
<!-- forensicfit_utils&#45;&gt;forensicfit_core_material -->
<g id="edge20" class="edge">
<title>forensicfit_utils&#45;&gt;forensicfit_core_material</title><style>.edge>path:hover{stroke-width:8}</style>
<path fill="none" stroke="black" d="M417.06,-570.44C409.01,-560.2 400.3,-546.9 396.2,-533.24"/>
<path fill="none" stroke="black" d="M396.2,-532.24C391.28,-515.83 378.73,-502.51 365.21,-492.36"/>
<polygon fill="#d60b0b" stroke="black" points="366.94,-489.3 356.73,-486.46 362.94,-495.04 366.94,-489.3"/>
</g>
<!-- forensicfit_utils&#45;&gt;forensicfit_core_tape -->
<g id="edge21" class="edge">
<title>forensicfit_utils&#45;&gt;forensicfit_core_tape</title><style>.edge>path:hover{stroke-width:8}</style>
<path fill="none" stroke="black" d="M396.2,-532.24C390.55,-513.36 405.09,-498.58 422.92,-488.01"/>
<polygon fill="#d60b0b" stroke="black" points="424.75,-491 431.87,-483.16 421.41,-484.85 424.75,-491"/>
</g>
<!-- forensicfit_utils&#45;&gt;forensicfit_database_database -->
<g id="edge22" class="edge">
<title>forensicfit_utils&#45;&gt;forensicfit_database_database</title><style>.edge>path:hover{stroke-width:8}</style>
<path fill="none" stroke="black" d="M396.2,-532.24C388.04,-505 404.39,-495.49 396.2,-468.25"/>
<path fill="none" stroke="black" d="M396.2,-466.25C391.87,-451.85 389.26,-447.24 377.2,-438.26 325.74,-399.93 251.15,-445.85 244.2,-382.05"/>
</g>
<!-- forensicfit_utils_array_tools -->
<g id="node15" class="node">
<title>forensicfit_utils_array_tools</title><style>.edge>path:hover{stroke-width:8}</style>
<ellipse fill="#d92626" stroke="black" cx="382.2" cy="-676.66" rx="50.41" ry="28.98"/>
<text text-anchor="middle" x="382.2" y="-685.16" font-family="Helvetica,sans-Serif" font-size="10.00" fill="#ffffff">forensicfit.</text>
<text text-anchor="middle" x="382.2" y="-674.16" font-family="Helvetica,sans-Serif" font-size="10.00" fill="#ffffff">utils.</text>
<text text-anchor="middle" x="382.2" y="-663.16" font-family="Helvetica,sans-Serif" font-size="10.00" fill="#ffffff">array_tools</text>
</g>
<!-- forensicfit_utils_array_tools&#45;&gt;forensicfit_core_material -->
<g id="edge23" class="edge">
<title>forensicfit_utils_array_tools&#45;&gt;forensicfit_core_material</title><style>.edge>path:hover{stroke-width:8}</style>
<path fill="none" stroke="black" d="M368.31,-648.74C361.45,-632.4 355.21,-610.99 358.2,-591.46"/>
</g>
<!-- forensicfit_utils_array_tools&#45;&gt;forensicfit_database_database -->
<g id="edge24" class="edge">
<title>forensicfit_utils_array_tools&#45;&gt;forensicfit_database_database</title><style>.edge>path:hover{stroke-width:8}</style>
<path fill="none" stroke="black" d="M358.32,-650.94C328.08,-620.52 273.48,-568.46 220.2,-532.24 190.94,-512.36 167.72,-526.39 149.2,-496.24 135.72,-474.29 136.44,-460.65 149.2,-438.26 173.51,-395.64 249.52,-430.82 244.2,-382.05"/>
<path fill="none" stroke="black" d="M244.2,-380.05C239.85,-351.04 229.76,-319.46 221.07,-295.81"/>
<polygon fill="#d92626" stroke="black" points="224.25,-294.32 217.46,-286.19 217.7,-296.78 224.25,-294.32"/>
</g>
<!-- forensicfit_utils_array_tools&#45;&gt;forensicfit_utils -->
<g id="edge25" class="edge">
<title>forensicfit_utils_array_tools&#45;&gt;forensicfit_utils</title><style>.edge>path:hover{stroke-width:8}</style>
<path fill="none" stroke="black" d="M398.66,-649.02C404.39,-639.75 410.83,-629.31 416.64,-619.89"/>
<polygon fill="#d92626" stroke="black" points="419.7,-621.6 421.98,-611.25 413.75,-617.92 419.7,-621.6"/>
</g>
<!-- forensicfit_utils_image_tools -->
<g id="node16" class="node">
<title>forensicfit_utils_image_tools</title><style>.edge>path:hover{stroke-width:8}</style>
<ellipse fill="#cc3333" stroke="black" cx="542.2" cy="-676.66" rx="54.39" ry="28.98"/>
<text text-anchor="middle" x="542.2" y="-685.16" font-family="Helvetica,sans-Serif" font-size="10.00" fill="#ffffff">forensicfit.</text>
<text text-anchor="middle" x="542.2" y="-674.16" font-family="Helvetica,sans-Serif" font-size="10.00" fill="#ffffff">utils.</text>
<text text-anchor="middle" x="542.2" y="-663.16" font-family="Helvetica,sans-Serif" font-size="10.00" fill="#ffffff">image_tools</text>
</g>
<!-- forensicfit_utils_image_tools&#45;&gt;forensicfit_core_tape -->
<g id="edge26" class="edge">
<title>forensicfit_utils_image_tools&#45;&gt;forensicfit_core_tape</title><style>.edge>path:hover{stroke-width:8}</style>
<path fill="none" stroke="black" d="M539.14,-647.64C538.09,-631.09 538.05,-609.85 542.2,-591.46"/>
</g>
<!-- forensicfit_utils_image_tools&#45;&gt;forensicfit_utils -->
<g id="edge27" class="edge">
<title>forensicfit_utils_image_tools&#45;&gt;forensicfit_utils</title><style>.edge>path:hover{stroke-width:8}</style>
<path fill="none" stroke="black" d="M512.12,-652.21C497.38,-640.71 479.65,-626.89 464.83,-615.34"/>
<polygon fill="#cc3333" stroke="black" points="466.97,-612.57 456.94,-609.18 462.67,-618.09 466.97,-612.57"/>
</g>
<!-- numpy -->
<g id="node17" class="node">
<title>numpy</title><style>.edge>path:hover{stroke-width:8}</style>
<ellipse fill="#80f906" stroke="black" cx="416.2" cy="-868.65" rx="29.37" ry="18"/>
<text text-anchor="middle" x="416.2" y="-866.15" font-family="Helvetica,sans-Serif" font-size="10.00" fill="#000000">numpy</text>
</g>
<!-- numpy&#45;&gt;forensicfit_core_analyzer -->
<g id="edge28" class="edge">
<title>numpy&#45;&gt;forensicfit_core_analyzer</title><style>.edge>path:hover{stroke-width:8}</style>
<path fill="none" stroke="black" d="M206.2,-532.24C208.21,-524.04 209.02,-515.05 209.18,-506.49"/>
<polygon fill="#80f906" stroke="black" points="212.68,-506.28 209.07,-496.32 205.68,-506.35 212.68,-506.28"/>
</g>
<!-- numpy&#45;&gt;forensicfit_core_data -->
<g id="edge29" class="edge">
<title>numpy&#45;&gt;forensicfit_core_data</title><style>.edge>path:hover{stroke-width:8}</style>
<path fill="none" stroke="black" d="M542.2,-758.65C564.85,-729.91 587.97,-737.93 605.2,-705.65 641.52,-637.66 663.11,-599.79 624.2,-533.24"/>
<path fill="none" stroke="black" d="M624.2,-532.24C618.22,-523.17 612.07,-513.15 606.5,-503.79"/>
<polygon fill="#80f906" stroke="black" points="609.45,-501.91 601.37,-495.06 603.42,-505.46 609.45,-501.91"/>
</g>
<!-- numpy&#45;&gt;forensicfit_core_material -->
<g id="edge30" class="edge">
<title>numpy&#45;&gt;forensicfit_core_material</title><style>.edge>path:hover{stroke-width:8}</style>
<path fill="none" stroke="black" d="M206.2,-532.24C207.18,-528.24 243.71,-508.2 275.15,-491.6"/>
<polygon fill="#80f906" stroke="black" points="277.06,-494.55 284.28,-486.8 273.8,-488.36 277.06,-494.55"/>
</g>
<!-- numpy&#45;&gt;forensicfit_core_tape -->
<g id="edge31" class="edge">
<title>numpy&#45;&gt;forensicfit_core_tape</title><style>.edge>path:hover{stroke-width:8}</style>
<path fill="none" stroke="black" d="M542.2,-758.65C564.37,-729.54 494.65,-738.83 479.2,-705.65 468.33,-682.29 468.67,-671.19 479.2,-647.67 494.54,-613.42 533.94,-628.06 542.2,-591.46"/>
<path fill="none" stroke="black" d="M542.2,-589.46C548.61,-555.78 526.7,-522.42 505.74,-499.25"/>
<polygon fill="#80f906" stroke="black" points="508.12,-496.67 498.71,-491.8 503.03,-501.47 508.12,-496.67"/>
</g>
<!-- numpy&#45;&gt;forensicfit_database_database -->
<g id="edge32" class="edge">
<title>numpy&#45;&gt;forensicfit_database_database</title><style>.edge>path:hover{stroke-width:8}</style>
<path fill="none" stroke="black" d="M206.2,-322.84C207.26,-314.53 207.7,-305.57 207.78,-297.06"/>
<polygon fill="#80f906" stroke="black" points="211.28,-296.96 207.74,-286.98 204.28,-296.99 211.28,-296.96"/>
</g>
<!-- numpy&#45;&gt;forensicfit_from_excel -->
<g id="edge33" class="edge">
<title>numpy&#45;&gt;forensicfit_from_excel</title><style>.edge>path:hover{stroke-width:8}</style>
<path fill="none" stroke="black" d="M417.99,-850.28C418.63,-839.84 418.67,-826.36 416.2,-814.65"/>
<path fill="none" stroke="black" d="M416.2,-813.65C404.45,-757.81 213.92,-753.75 183.2,-705.65 150.47,-654.39 180.31,-628.46 194.2,-569.24 198.06,-552.83 202.2,-549.63 206.2,-533.24"/>
<path fill="none" stroke="black" d="M206.2,-532.24C211.47,-497.66 154.43,-526.11 136.2,-496.24 93.13,-425.65 195.75,-405.87 206.2,-323.84"/>
<path fill="none" stroke="black" d="M206.2,-322.84C204.88,-292.9 165.78,-311.8 149.2,-286.84 120.74,-243.97 169.07,-206.36 130.2,-172.64"/>
<path fill="none" stroke="black" d="M130.2,-170.64C111.25,-154.7 91.1,-135.44 75.77,-120.24"/>
<polygon fill="#80f906" stroke="black" points="78.2,-117.72 68.65,-113.13 73.26,-122.68 78.2,-117.72"/>
</g>
<!-- numpy&#45;&gt;forensicfit_script_process_dir -->
<g id="edge34" class="edge">
<title>numpy&#45;&gt;forensicfit_script_process_dir</title><style>.edge>path:hover{stroke-width:8}</style>
<path fill="none" stroke="black" d="M542.2,-758.65C598.42,-686.42 685.43,-778.23 741.2,-705.65 756.91,-685.22 746.57,-672.88 741.2,-647.67 733.66,-612.27 653.43,-446.11 643.2,-438.26 575.04,-385.92 525.8,-448.26 453.2,-402.26 416.81,-379.2 396.2,-366.93 396.2,-323.84 396.2,-323.84 396.2,-323.84 396.2,-256.84 396.2,-209.29 379.52,-156.22 367.43,-124.02"/>
<polygon fill="#80f906" stroke="black" points="370.56,-122.41 363.7,-114.34 364.03,-124.93 370.56,-122.41"/>
</g>
<!-- numpy&#45;&gt;forensicfit_utils_array_tools -->
<g id="edge35" class="edge">
<title>numpy&#45;&gt;forensicfit_utils_array_tools</title><style>.edge>path:hover{stroke-width:8}</style>
<path fill="none" stroke="black" d="M416.2,-813.65C403.69,-754.2 505.4,-808.99 542.2,-760.65"/>
<path fill="none" stroke="black" d="M542.2,-758.65C546.08,-753.56 478.99,-721.61 430.48,-699.39"/>
<polygon fill="#80f906" stroke="black" points="431.91,-696.2 421.36,-695.23 429.01,-702.57 431.91,-696.2"/>
</g>
<!-- numpy&#45;&gt;forensicfit_utils_image_tools -->
<g id="edge36" class="edge">
<title>numpy&#45;&gt;forensicfit_utils_image_tools</title><style>.edge>path:hover{stroke-width:8}</style>
<path fill="none" stroke="black" d="M542.2,-758.65C551.41,-746.56 552.84,-730.25 551.43,-715.43"/>
<polygon fill="#80f906" stroke="black" points="554.89,-714.91 550.05,-705.48 547.95,-715.87 554.89,-714.91"/>
</g>
<!-- scipy -->
<g id="node18" class="node">
<title>scipy</title><style>.edge>path:hover{stroke-width:8}</style>
<ellipse fill="#31c4c4" stroke="black" cx="416.2" cy="-759.65" rx="27" ry="18"/>
<text text-anchor="middle" x="416.2" y="-757.15" font-family="Helvetica,sans-Serif" font-size="10.00" fill="#000000">scipy</text>
</g>
<!-- numpy&#45;&gt;scipy -->
<g id="edge37" class="edge">
<title>numpy&#45;&gt;scipy</title><style>.edge>path:hover{stroke-width:8}</style>
<path fill="none" stroke="black" d="M416.2,-813.65C414.49,-805.51 413.99,-796.52 414.05,-788.28"/>
<polygon fill="#80f906" stroke="black" points="417.56,-788.14 414.41,-778.03 410.57,-787.9 417.56,-788.14"/>
</g>
<!-- scipy&#45;&gt;forensicfit_core_material -->
<g id="edge38" class="edge">
<title>scipy&#45;&gt;forensicfit_core_material</title><style>.edge>path:hover{stroke-width:8}</style>
<path fill="none" stroke="black" d="M389.58,-756.05C337.69,-750.36 226.09,-734.93 203.2,-705.65 151.12,-639.02 234.41,-545.49 285.33,-498.18"/>
<polygon fill="#31c4c4" stroke="black" points="287.88,-500.6 292.9,-491.27 283.15,-495.43 287.88,-500.6"/>
</g>
<!-- scipy_ndimage -->
<g id="node19" class="node">
<title>scipy_ndimage</title><style>.edge>path:hover{stroke-width:8}</style>
<ellipse fill="#4cb3b3" stroke="black" cx="263.2" cy="-676.66" rx="50.75" ry="18"/>
<text text-anchor="middle" x="263.2" y="-674.16" font-family="Helvetica,sans-Serif" font-size="10.00" fill="#000000">scipy.ndimage</text>
</g>
<!-- scipy_ndimage&#45;&gt;forensicfit_core_material -->
<g id="edge39" class="edge">
<title>scipy_ndimage&#45;&gt;forensicfit_core_material</title><style>.edge>path:hover{stroke-width:8}</style>
<path fill="none" stroke="black" d="M293.29,-662.07C318.58,-648.46 351.62,-624.75 358.2,-591.46"/>
<path fill="none" stroke="black" d="M358.2,-589.46C364.02,-560.05 352.94,-527.69 341.27,-503.81"/>
<polygon fill="#4cb3b3" stroke="black" points="344.32,-502.07 336.63,-494.78 338.09,-505.27 344.32,-502.07"/>
</g>
<!-- tensorflow -->
<g id="node20" class="node">
<title>tensorflow</title><style>.edge>path:hover{stroke-width:8}</style>
<ellipse fill="#7f33cc" stroke="black" cx="692.2" cy="-676.66" rx="40.06" ry="18"/>
<text text-anchor="middle" x="692.2" y="-674.16" font-family="Helvetica,sans-Serif" font-size="10.00" fill="#ffffff">tensorflow</text>
</g>
<!-- tensorflow&#45;&gt;forensicfit_core_data -->
<g id="edge40" class="edge">
<title>tensorflow&#45;&gt;forensicfit_core_data</title><style>.edge>path:hover{stroke-width:8}</style>
<path fill="none" stroke="black" d="M694.45,-658.63C696.19,-641.43 697.52,-614.24 692.2,-591.46"/>
<path fill="none" stroke="black" d="M692.2,-589.46C683.29,-551.27 644,-567.1 624.2,-533.24"/>
</g>
<!-- tensorflow&#45;&gt;forensicfit_machine_learning_siamese_network -->
<g id="edge41" class="edge">
<title>tensorflow&#45;&gt;forensicfit_machine_learning_siamese_network</title><style>.edge>path:hover{stroke-width:8}</style>
<path fill="none" stroke="black" d="M692.2,-589.46C684.18,-556.61 705.99,-524.17 727.98,-501.13"/>
<polygon fill="#7f33cc" stroke="black" points="730.51,-503.54 735.08,-493.99 725.55,-498.61 730.51,-503.54"/>
</g>
</g>
</svg>
