<svg width="1280" height="720" xmlns="http://www.w3.org/2000/svg" xmlns:xlink="http://www.w3.org/1999/xlink" overflow="hidden"><defs><clipPath id="clip0"><rect x="0" y="0" width="1280" height="720"/></clipPath><linearGradient x1="595.5" y1="227" x2="595.5" y2="293" gradientUnits="userSpaceOnUse" spreadMethod="reflect" id="fill1"><stop offset="0" stop-color="#FFFFFF"/><stop offset="0.5" stop-color="#FFFFFF"/><stop offset="1" stop-color="#E2E2E2"/></linearGradient><linearGradient x1="303.5" y1="323" x2="303.5" y2="388" gradientUnits="userSpaceOnUse" spreadMethod="reflect" id="fill2"><stop offset="0" stop-color="#FFFFFF"/><stop offset="0.5" stop-color="#FFFFFF"/><stop offset="1" stop-color="#E2E2E2"/></linearGradient><linearGradient x1="51.5" y1="418" x2="51.5" y2="483" gradientUnits="userSpaceOnUse" spreadMethod="reflect" id="fill3"><stop offset="0" stop-color="#FFFFFF"/><stop offset="0.5" stop-color="#FFFFFF"/><stop offset="1" stop-color="#E2E2E2"/></linearGradient><linearGradient x1="177.5" y1="418" x2="177.5" y2="483" gradientUnits="userSpaceOnUse" spreadMethod="reflect" id="fill4"><stop offset="0" stop-color="#FFFFFF"/><stop offset="0.5" stop-color="#FFFFFF"/><stop offset="1" stop-color="#E2E2E2"/></linearGradient><linearGradient x1="303.5" y1="418" x2="303.5" y2="483" gradientUnits="userSpaceOnUse" spreadMethod="reflect" id="fill5"><stop offset="0" stop-color="#FFFFFF"/><stop offset="0.5" stop-color="#FFFFFF"/><stop offset="1" stop-color="#E2E2E2"/></linearGradient><linearGradient x1="429.5" y1="418" x2="429.5" y2="483" gradientUnits="userSpaceOnUse" spreadMethod="reflect" id="fill6"><stop offset="0" stop-color="#FFFFFF"/><stop offset="0.5" stop-color="#FFFFFF"/><stop offset="1" stop-color="#E2E2E2"/></linearGradient><linearGradient x1="555.5" y1="418" x2="555.5" y2="483" gradientUnits="userSpaceOnUse" spreadMethod="reflect" id="fill7"><stop offset="0" stop-color="#FFFFFF"/><stop offset="0.5" stop-color="#FFFFFF"/><stop offset="1" stop-color="#E2E2E2"/></linearGradient><linearGradient x1="429.5" y1="323" x2="429.5" y2="388" gradientUnits="userSpaceOnUse" spreadMethod="reflect" id="fill8"><stop offset="0" stop-color="#FFFFFF"/><stop offset="0.5" stop-color="#FFFFFF"/><stop offset="1" stop-color="#E2E2E2"/></linearGradient><linearGradient x1="886.5" y1="323" x2="886.5" y2="388" gradientUnits="userSpaceOnUse" spreadMethod="reflect" id="fill9"><stop offset="0" stop-color="#FFFFFF"/><stop offset="0.5" stop-color="#FFFFFF"/><stop offset="1" stop-color="#E2E2E2"/></linearGradient><linearGradient x1="688" y1="418" x2="688" y2="483" gradientUnits="userSpaceOnUse" spreadMethod="reflect" id="fill10"><stop offset="0" stop-color="#FFFFFF"/><stop offset="0.5" stop-color="#FFFFFF"/><stop offset="1" stop-color="#E2E2E2"/></linearGradient><linearGradient x1="819.5" y1="418" x2="819.5" y2="483" gradientUnits="userSpaceOnUse" spreadMethod="reflect" id="fill11"><stop offset="0" stop-color="#FFFFFF"/><stop offset="0.5" stop-color="#FFFFFF"/><stop offset="1" stop-color="#E2E2E2"/></linearGradient><linearGradient x1="955.5" y1="418" x2="955.5" y2="483" gradientUnits="userSpaceOnUse" spreadMethod="reflect" id="fill12"><stop offset="0" stop-color="#FFFFFF"/><stop offset="0.5" stop-color="#FFFFFF"/><stop offset="1" stop-color="#E2E2E2"/></linearGradient><linearGradient x1="1091.5" y1="418" x2="1091.5" y2="483" gradientUnits="userSpaceOnUse" spreadMethod="reflect" id="fill13"><stop offset="0" stop-color="#FFFFFF"/><stop offset="0.5" stop-color="#FFFFFF"/><stop offset="1" stop-color="#E2E2E2"/></linearGradient></defs><g clip-path="url(#clip0)"><rect x="0" y="0" width="1280" height="720" fill="#FFFFFF"/><path d="M886.5 388.5 886.5 408.915 1091.43 408.915 1091.43 418.458" stroke="#000000" stroke-width="0.666667" stroke-miterlimit="8" fill="none" fill-rule="evenodd"/><path d="M886.5 388.5 886.5 408.915 955.753 408.915 955.753 418.458" stroke="#000000" stroke-width="0.666667" stroke-miterlimit="8" fill="none" fill-rule="evenodd"/><path d="M886.922 388.5 886.922 408.915 820.5 408.915 820.5 418.458" stroke="#000000" stroke-width="0.666667" stroke-miterlimit="8" fill="none" fill-rule="evenodd"/><path d="M887.124 388.5 887.124 408.915 688.5 408.915 688.5 418.458" stroke="#000000" stroke-width="0.666667" stroke-miterlimit="8" fill="none" fill-rule="evenodd"/><path d="M595.5 293.5 595.5 313.915 886.81 313.915 886.81 323.458" stroke="#000000" stroke-width="0.666667" stroke-miterlimit="8" fill="none" fill-rule="evenodd"/><path d="M595.913 293.5 595.913 313.915 430.5 313.915 430.5 323.458" stroke="#000000" stroke-width="0.666667" stroke-miterlimit="8" fill="none" fill-rule="evenodd"/><path d="M304.5 388.5 304.5 408.915 556.294 408.915 556.294 418.458" stroke="#000000" stroke-width="0.666667" stroke-miterlimit="8" fill="none" fill-rule="evenodd"/><path d="M304.5 388.5 304.5 408.915 430.397 408.915 430.397 418.458" stroke="#000000" stroke-width="0.666667" stroke-miterlimit="8" fill="none" fill-rule="evenodd"/><path d="M304.3 388.5 304.3 418.458" stroke="#000000" stroke-width="0.666667" stroke-miterlimit="8" fill="none" fill-rule="evenodd"/><path d="M304.397 388.5 304.397 408.915 178.5 408.915 178.5 418.458" stroke="#000000" stroke-width="0.666667" stroke-miterlimit="8" fill="none" fill-rule="evenodd"/><path d="M304.294 388.5 304.294 408.915 52.5001 408.915 52.5001 418.458" stroke="#000000" stroke-width="0.666667" stroke-miterlimit="8" fill="none" fill-rule="evenodd"/><path d="M595.81 293.5 595.81 313.915 304.5 313.915 304.5 323.458" stroke="#000000" stroke-width="0.666667" stroke-miterlimit="8" fill="none" fill-rule="evenodd"/><path d="M544 233.6C544 229.955 546.955 227 550.6 227L640.4 227C644.045 227 647 229.955 647 233.6L647 286.4C647 290.045 644.045 293 640.4 293L550.6 293C546.955 293 544 290.045 544 286.4Z" fill="url(#fill1)" fill-rule="evenodd"/><path d="M555.5 245C555.5 241.41 558.41 238.5 562 238.5L652 238.5C655.59 238.5 658.5 241.41 658.5 245L658.5 297C658.5 300.59 655.59 303.5 652 303.5L562 303.5C558.41 303.5 555.5 300.59 555.5 297Z" stroke="#000000" stroke-width="0.666667" stroke-miterlimit="8" fill="#FFD966" fill-rule="evenodd" fill-opacity="0.901961"/><text font-family="Consolas,Consolas_MSFontService,sans-serif" font-weight="400" font-size="13" transform="translate(566.155 275)">ForensicFit</text><path d="M252 329.5C252 325.91 254.91 323 258.5 323L348.5 323C352.09 323 355 325.91 355 329.5L355 381.5C355 385.09 352.09 388 348.5 388L258.5 388C254.91 388 252 385.09 252 381.5Z" fill="url(#fill2)" fill-rule="evenodd"/><path d="M264.5 340.1C264.5 336.455 267.455 333.5 271.1 333.5L360.9 333.5C364.545 333.5 367.5 336.455 367.5 340.1L367.5 392.9C367.5 396.545 364.545 399.5 360.9 399.5L271.1 399.5C267.455 399.5 264.5 396.545 264.5 392.9Z" stroke="#000000" stroke-width="0.666667" stroke-miterlimit="8" fill="#FFD966" fill-rule="evenodd" fill-opacity="0.901961"/><text font-family="Consolas,Consolas_MSFontService,sans-serif" font-weight="400" font-size="13" transform="translate(300.512 370)">core</text><path d="M0 424.5C-8.1958e-16 420.91 2.91016 418 6.50002 418L96.5 418C100.09 418 103 420.91 103 424.5L103 476.5C103 480.09 100.09 483 96.5 483L6.50002 483C2.91016 483-1.63916e-15 480.09-1.63916e-15 476.5Z" fill="url(#fill3)" fill-rule="evenodd"/><path d="M12.5001 436C12.5001 432.41 15.4102 429.5 19.0001 429.5L109 429.5C112.59 429.5 115.5 432.41 115.5 436L115.5 488C115.5 491.59 112.59 494.5 109 494.5L19.0001 494.5C15.4102 494.5 12.5001 491.59 12.5001 488Z" stroke="#000000" stroke-width="0.666667" stroke-miterlimit="8" fill="#C55A11" fill-rule="evenodd" fill-opacity="0.901961"/><text font-family="Consolas,Consolas_MSFontService,sans-serif" font-weight="400" font-size="13" transform="translate(34.0515 465)">Metadata</text><path d="M126 424.5C126 420.91 128.91 418 132.5 418L222.5 418C226.09 418 229 420.91 229 424.5L229 476.5C229 480.09 226.09 483 222.5 483L132.5 483C128.91 483 126 480.09 126 476.5Z" fill="url(#fill4)" fill-rule="evenodd"/><path d="M138.5 436C138.5 432.41 141.41 429.5 145 429.5L235 429.5C238.59 429.5 241.5 432.41 241.5 436L241.5 488C241.5 491.59 238.59 494.5 235 494.5L145 494.5C141.41 494.5 138.5 491.59 138.5 488Z" stroke="#000000" stroke-width="0.666667" stroke-miterlimit="8" fill="#F4B183" fill-rule="evenodd" fill-opacity="0.901961"/><text font-family="Consolas,Consolas_MSFontService,sans-serif" font-weight="400" font-size="13" transform="translate(170.949 465)">Image</text><path d="M252 424.5C252 420.91 254.91 418 258.5 418L348.5 418C352.09 418 355 420.91 355 424.5L355 476.5C355 480.09 352.09 483 348.5 483L258.5 483C254.91 483 252 480.09 252 476.5Z" fill="url(#fill5)" fill-rule="evenodd"/><path d="M264.5 436C264.5 432.41 267.41 429.5 271 429.5L361 429.5C364.59 429.5 367.5 432.41 367.5 436L367.5 488C367.5 491.59 364.59 494.5 361 494.5L271 494.5C267.41 494.5 264.5 491.59 264.5 488Z" stroke="#000000" stroke-width="0.666667" stroke-miterlimit="8" fill="#FBE5D6" fill-rule="evenodd" fill-opacity="0.901961"/><text font-family="Consolas,Consolas_MSFontService,sans-serif" font-weight="400" font-size="13" transform="translate(300.512 465)">Tape</text><path d="M378 424.5C378 420.91 380.91 418 384.5 418L474.5 418C478.09 418 481 420.91 481 424.5L481 476.5C481 480.09 478.09 483 474.5 483L384.5 483C380.91 483 378 480.09 378 476.5Z" fill="url(#fill6)" fill-rule="evenodd"/><path d="M390.5 436C390.5 432.41 393.41 429.5 397 429.5L487 429.5C490.59 429.5 493.5 432.41 493.5 436L493.5 488C493.5 491.59 490.59 494.5 487 494.5L397 494.5C393.41 494.5 390.5 491.59 390.5 488Z" stroke="#000000" stroke-width="0.666667" stroke-miterlimit="8" fill="#F4B183" fill-rule="evenodd" fill-opacity="0.901961"/><text font-family="Consolas,Consolas_MSFontService,sans-serif" font-weight="400" font-size="13" transform="translate(411.743 465)">Analyzer</text><path d="M504 424.5C504 420.91 506.91 418 510.5 418L600.5 418C604.09 418 607 420.91 607 424.5L607 476.5C607 480.09 604.09 483 600.5 483L510.5 483C506.91 483 504 480.09 504 476.5Z" fill="url(#fill7)" fill-rule="evenodd"/><path d="M515.5 436C515.5 432.41 518.41 429.5 522 429.5L612 429.5C615.59 429.5 618.5 432.41 618.5 436L618.5 488C618.5 491.59 615.59 494.5 612 494.5L522 494.5C518.41 494.5 515.5 491.59 515.5 488Z" stroke="#000000" stroke-width="0.666667" stroke-miterlimit="8" fill="#FBE5D6" fill-rule="evenodd" fill-opacity="0.901961"/><text font-family="Consolas,Consolas_MSFontService,sans-serif" font-weight="400" font-size="13" transform="translate(522.973 465)">TapeAnalyzer</text><path d="M378 329.5C378 325.91 380.91 323 384.5 323L474.5 323C478.09 323 481 325.91 481 329.5L481 381.5C481 385.09 478.09 388 474.5 388L384.5 388C380.91 388 378 385.09 378 381.5Z" fill="url(#fill8)" fill-rule="evenodd"/><path d="M390.5 340.1C390.5 336.455 393.455 333.5 397.1 333.5L486.9 333.5C490.545 333.5 493.5 336.455 493.5 340.1L493.5 392.9C493.5 396.545 490.545 399.5 486.9 399.5L397.1 399.5C393.455 399.5 390.5 396.545 390.5 392.9Z" stroke="#000000" stroke-width="0.666667" stroke-miterlimit="8" fill="#F4B183" fill-rule="evenodd" fill-opacity="0.901961"/><text font-family="Consolas,Consolas_MSFontService,sans-serif" font-weight="400" font-size="13" transform="translate(411.743 370)">Database</text><path d="M835 329.5C835 325.91 837.91 323 841.5 323L931.5 323C935.09 323 938 325.91 938 329.5L938 381.5C938 385.09 935.09 388 931.5 388L841.5 388C837.91 388 835 385.09 835 381.5Z" fill="url(#fill9)" fill-rule="evenodd"/><path d="M846.5 340.1C846.5 336.455 849.455 333.5 853.1 333.5L942.9 333.5C946.545 333.5 949.5 336.455 949.5 340.1L949.5 392.9C949.5 396.545 946.545 399.5 942.9 399.5L853.1 399.5C849.455 399.5 846.5 396.545 846.5 392.9Z" stroke="#000000" stroke-width="0.666667" stroke-miterlimit="8" fill="#FFD966" fill-rule="evenodd" fill-opacity="0.901961"/><text font-family="Consolas,Consolas_MSFontService,sans-serif" font-weight="400" font-size="13" transform="translate(879.465 370)">utils</text><path d="M630 424.5C630 420.91 632.91 418 636.5 418L739.5 418C743.09 418 746 420.91 746 424.5L746 476.5C746 480.09 743.09 483 739.5 483L636.5 483C632.91 483 630 480.09 630 476.5Z" fill="url(#fill10)" fill-rule="evenodd"/><path d="M641.5 436C641.5 432.41 644.41 429.5 648 429.5L751 429.5C754.59 429.5 757.5 432.41 757.5 436L757.5 488C757.5 491.59 754.59 494.5 751 494.5L648 494.5C644.41 494.5 641.5 491.59 641.5 488Z" stroke="#000000" stroke-width="0.666667" stroke-miterlimit="8" fill="#CBCBCB" fill-rule="evenodd" fill-opacity="0.901961"/><text font-family="Consolas,Consolas_MSFontService,sans-serif" font-weight="400" font-size="13" transform="translate(647.841 465)">array_tools.py</text><path d="M768 424.5C768 420.91 770.91 418 774.5 418L864.5 418C868.09 418 871 420.91 871 424.5L871 476.5C871 480.09 868.09 483 864.5 483L774.5 483C770.91 483 768 480.09 768 476.5Z" fill="url(#fill11)" fill-rule="evenodd"/><path d="M780.5 436C780.5 432.41 783.41 429.5 787 429.5L877 429.5C880.59 429.5 883.5 432.41 883.5 436L883.5 488C883.5 491.59 880.59 494.5 877 494.5L787 494.5C783.41 494.5 780.5 491.59 780.5 488Z" stroke="#000000" stroke-width="0.666667" stroke-miterlimit="8" fill="#CBCBCB" fill-rule="evenodd" fill-opacity="0.901961"/><text font-family="Consolas,Consolas_MSFontService,sans-serif" font-weight="400" font-size="13" transform="translate(794.709 465)">general.py</text><path d="M894 424.5C894 420.91 896.91 418 900.5 418L1010.5 418C1014.09 418 1017 420.91 1017 424.5L1017 476.5C1017 480.09 1014.09 483 1010.5 483L900.5 483C896.91 483 894 480.09 894 476.5Z" fill="url(#fill12)" fill-rule="evenodd"/><path d="M906.5 436C906.5 432.41 909.41 429.5 913 429.5L1022 429.5C1025.59 429.5 1028.5 432.41 1028.5 436L1028.5 488C1028.5 491.59 1025.59 494.5 1022 494.5L913 494.5C909.41 494.5 906.5 491.59 906.5 488Z" stroke="#000000" stroke-width="0.666667" stroke-miterlimit="8" fill="#CBCBCB" fill-rule="evenodd" fill-opacity="0.901961"/><text font-family="Consolas,Consolas_MSFontService,sans-serif" font-weight="400" font-size="13" transform="translate(915.718 465)">image_tools.py</text><path d="M1040 424.5C1040 420.91 1042.91 418 1046.5 418L1136.5 418C1140.09 418 1143 420.91 1143 424.5L1143 476.5C1143 480.09 1140.09 483 1136.5 483L1046.5 483C1042.91 483 1040 480.09 1040 476.5Z" fill="url(#fill13)" fill-rule="evenodd"/><path d="M1051.5 436C1051.5 432.41 1054.41 429.5 1058 429.5L1148 429.5C1151.59 429.5 1154.5 432.41 1154.5 436L1154.5 488C1154.5 491.59 1151.59 494.5 1148 494.5L1058 494.5C1054.41 494.5 1051.5 491.59 1051.5 488Z" stroke="#000000" stroke-width="0.666667" stroke-miterlimit="8" fill="#CBCBCB" fill-rule="evenodd" fill-opacity="0.901961"/><text font-family="Consolas,Consolas_MSFontService,sans-serif" font-weight="400" font-size="13" transform="translate(1066.06 465)">plotter.py</text><path d="M236.5 146.1C236.5 143.007 239.007 140.5 242.1 140.5L319.9 140.5C322.993 140.5 325.5 143.007 325.5 146.1L325.5 190.9C325.5 193.993 322.993 196.5 319.9 196.5L242.1 196.5C239.007 196.5 236.5 193.993 236.5 190.9Z" stroke="#000000" stroke-width="0.666667" stroke-miterlimit="8" fill="#8497B0" fill-rule="evenodd"/><rect x="238" y="142" width="85" height="52" fill="#8497B0"/><text font-family="Consolas,Consolas_MSFontService,sans-serif" font-weight="400" font-size="13" transform="translate(255.001 172)">PyMongo</text><path d="M345.5 146.1C345.5 143.007 348.007 140.5 351.1 140.5L427.9 140.5C430.993 140.5 433.5 143.007 433.5 146.1L433.5 190.9C433.5 193.993 430.993 196.5 427.9 196.5L351.1 196.5C348.007 196.5 345.5 193.993 345.5 190.9Z" stroke="#000000" stroke-width="0.666667" stroke-miterlimit="8" fill="#8497B0" fill-rule="evenodd"/><rect x="346" y="142" width="86" height="52" fill="#8497B0"/><text font-family="Consolas,Consolas_MSFontService,sans-serif" font-weight="400" font-size="13" transform="translate(366.89 172)">GridFS</text><path d="M453.5 146.1C453.5 143.007 456.007 140.5 459.1 140.5L535.9 140.5C538.993 140.5 541.5 143.007 541.5 146.1L541.5 190.9C541.5 193.993 538.993 196.5 535.9 196.5L459.1 196.5C456.007 196.5 453.5 193.993 453.5 190.9Z" stroke="#000000" stroke-width="0.666667" stroke-miterlimit="8" fill="#8497B0" fill-rule="evenodd"/><rect x="454" y="142" width="86" height="52" fill="#8497B0"/><text font-family="Consolas,Consolas_MSFontService,sans-serif" font-weight="400" font-size="13" transform="translate(475.111 172)">OpenCV</text><path d="M561.5 146.1C561.5 143.007 564.007 140.5 567.1 140.5L644.9 140.5C647.993 140.5 650.5 143.007 650.5 146.1L650.5 190.9C650.5 193.993 647.993 196.5 644.9 196.5L567.1 196.5C564.007 196.5 561.5 193.993 561.5 190.9Z" stroke="#000000" stroke-width="0.666667" stroke-miterlimit="8" fill="#8497B0" fill-rule="evenodd"/><rect x="563" y="142" width="85" height="52" fill="#8497B0"/><text font-family="Consolas,Consolas_MSFontService,sans-serif" font-weight="400" font-size="13" transform="translate(587 172)">NumPy</text><path d="M669.5 146.1C669.5 143.007 672.007 140.5 675.1 140.5L752.9 140.5C755.993 140.5 758.5 143.007 758.5 146.1L758.5 190.9C758.5 193.993 755.993 196.5 752.9 196.5L675.1 196.5C672.007 196.5 669.5 193.993 669.5 190.9Z" stroke="#000000" stroke-width="0.666667" stroke-miterlimit="8" fill="#8497B0" fill-rule="evenodd"/><rect x="671" y="142" width="85" height="52" fill="#8497B0"/><text font-family="Consolas,Consolas_MSFontService,sans-serif" font-weight="400" font-size="13" transform="translate(695.222 172)">SciPy</text><path d="M778.5 146.1C778.5 143.007 781.007 140.5 784.1 140.5L860.9 140.5C863.993 140.5 866.5 143.007 866.5 146.1L866.5 190.9C866.5 193.993 863.993 196.5 860.9 196.5L784.1 196.5C781.007 196.5 778.5 193.993 778.5 190.9Z" stroke="#000000" stroke-width="0.666667" stroke-miterlimit="8" fill="#8497B0" fill-rule="evenodd"/><rect x="779" y="142" width="85" height="52" fill="#8497B0"/><text font-family="Consolas,Consolas_MSFontService,sans-serif" font-weight="400" font-size="13" transform="translate(785.11 172)">Matplotlib</text><path d="M886.5 146.1C886.5 143.007 889.007 140.5 892.1 140.5L968.9 140.5C971.993 140.5 974.5 143.007 974.5 146.1L974.5 190.9C974.5 193.993 971.993 196.5 968.9 196.5L892.1 196.5C889.007 196.5 886.5 193.993 886.5 190.9Z" stroke="#000000" stroke-width="0.666667" stroke-miterlimit="8" fill="#8497B0" fill-rule="evenodd"/><rect x="887" y="142" width="86" height="52" fill="#8497B0"/><text font-family="Consolas,Consolas_MSFontService,sans-serif" font-weight="400" font-size="13" transform="translate(904.332 165)">Scikit-<tspan font-size="13" x="7.33331" y="14">image</tspan></text></g></svg>